<svg version="1.1" id="el_3bvQ6tmOS" xmlns="http://www.w3.org/2000/svg" xmlns:xlink="http://www.w3.org/1999/xlink" x="0px" y="0px" viewBox="0 0 85 117" style="enable-background:new 0 0 85.8 117.4;" xml:space="preserve"><style>@-webkit-keyframes kf_el_mWDMiXa3PiS_an_-izXaODGG{23.81%{opacity: 0;}26.67%{opacity: 1;}88.57%{opacity: 1;}91.43%{opacity: 0;}0%{opacity: 0;}100%{opacity: 0;}}@keyframes kf_el_mWDMiXa3PiS_an_-izXaODGG{23.81%{opacity: 0;}26.67%{opacity: 1;}88.57%{opacity: 1;}91.43%{opacity: 0;}0%{opacity: 0;}100%{opacity: 0;}}@-webkit-keyframes kf_el_Y9ClTRtMv6H_an_XdOD87r1m{23.81%{opacity: 0;}26.67%{opacity: 1;}88.57%{opacity: 1;}91.43%{opacity: 0;}0%{opacity: 0;}100%{opacity: 0;}}@keyframes kf_el_Y9ClTRtMv6H_an_XdOD87r1m{23.81%{opacity: 0;}26.67%{opacity: 1;}88.57%{opacity: 1;}91.43%{opacity: 0;}0%{opacity: 0;}100%{opacity: 0;}}@-webkit-keyframes kf_el_Me9uKLWBYPM_an_nwJXe2H6D{16.67%{-webkit-transform: translate(41.69999694824219px, 63.70000076293945px) scale(0, 0) translate(-41.69999694824219px, -63.70000076293945px);transform: translate(41.69999694824219px, 63.70000076293945px) scale(0, 0) translate(-41.69999694824219px, -63.70000076293945px);}20.95%{-webkit-transform: translate(41.69999694824219px, 63.70000076293945px) scale(1.3, 1.3) translate(-41.69999694824219px, -63.70000076293945px);transform: translate(41.69999694824219px, 63.70000076293945px) scale(1.3, 1.3) translate(-41.69999694824219px, -63.70000076293945px);}23.81%{-webkit-transform: translate(41.69999694824219px, 63.70000076293945px) scale(1, 1) translate(-41.69999694824219px, -63.70000076293945px);transform: translate(41.69999694824219px, 63.70000076293945px) scale(1, 1) translate(-41.69999694824219px, -63.70000076293945px);}88.57%{-webkit-transform: translate(41.69999694824219px, 63.70000076293945px) scale(1, 1) translate(-41.69999694824219px, -63.70000076293945px);transform: translate(41.69999694824219px, 63.70000076293945px) scale(1, 1) translate(-41.69999694824219px, -63.70000076293945px);}91.43%{-webkit-transform: translate(41.69999694824219px, 63.70000076293945px) scale(1.3, 1.3) translate(-41.69999694824219px, -63.70000076293945px);transform: translate(41.69999694824219px, 63.70000076293945px) scale(1.3, 1.3) translate(-41.69999694824219px, -63.70000076293945px);}100%{-webkit-transform: translate(41.69999694824219px, 63.70000076293945px) scale(0, 0) translate(-41.69999694824219px, -63.70000076293945px);transform: translate(41.69999694824219px, 63.70000076293945px) scale(0, 0) translate(-41.69999694824219px, -63.70000076293945px);}0%{-webkit-transform: translate(41.69999694824219px, 63.70000076293945px) scale(0, 0) translate(-41.69999694824219px, -63.70000076293945px);transform: translate(41.69999694824219px, 63.70000076293945px) scale(0, 0) translate(-41.69999694824219px, -63.70000076293945px);}}@keyframes kf_el_Me9uKLWBYPM_an_nwJXe2H6D{16.67%{-webkit-transform: translate(41.69999694824219px, 63.70000076293945px) scale(0, 0) translate(-41.69999694824219px, -63.70000076293945px);transform: translate(41.69999694824219px, 63.70000076293945px) scale(0, 0) translate(-41.69999694824219px, -63.70000076293945px);}20.95%{-webkit-transform: translate(41.69999694824219px, 63.70000076293945px) scale(1.3, 1.3) translate(-41.69999694824219px, -63.70000076293945px);transform: translate(41.69999694824219px, 63.70000076293945px) scale(1.3, 1.3) translate(-41.69999694824219px, -63.70000076293945px);}23.81%{-webkit-transform: translate(41.69999694824219px, 63.70000076293945px) scale(1, 1) translate(-41.69999694824219px, -63.70000076293945px);transform: translate(41.69999694824219px, 63.70000076293945px) scale(1, 1) translate(-41.69999694824219px, -63.70000076293945px);}88.57%{-webkit-transform: translate(41.69999694824219px, 63.70000076293945px) scale(1, 1) translate(-41.69999694824219px, -63.70000076293945px);transform: translate(41.69999694824219px, 63.70000076293945px) scale(1, 1) translate(-41.69999694824219px, -63.70000076293945px);}91.43%{-webkit-transform: translate(41.69999694824219px, 63.70000076293945px) scale(1.3, 1.3) translate(-41.69999694824219px, -63.70000076293945px);transform: translate(41.69999694824219px, 63.70000076293945px) scale(1.3, 1.3) translate(-41.69999694824219px, -63.70000076293945px);}100%{-webkit-transform: translate(41.69999694824219px, 63.70000076293945px) scale(0, 0) translate(-41.69999694824219px, -63.70000076293945px);transform: translate(41.69999694824219px, 63.70000076293945px) scale(0, 0) translate(-41.69999694824219px, -63.70000076293945px);}0%{-webkit-transform: translate(41.69999694824219px, 63.70000076293945px) scale(0, 0) translate(-41.69999694824219px, -63.70000076293945px);transform: translate(41.69999694824219px, 63.70000076293945px) scale(0, 0) translate(-41.69999694824219px, -63.70000076293945px);}}@-webkit-keyframes kf_el_3iwVmSqXWjw_an_Qewc1LiUJ{9.52%{opacity: 0;}16.67%{opacity: 1;}97.14%{opacity: 1;}100%{opacity: 0;}0%{opacity: 0;}}@keyframes kf_el_3iwVmSqXWjw_an_Qewc1LiUJ{9.52%{opacity: 0;}16.67%{opacity: 1;}97.14%{opacity: 1;}100%{opacity: 0;}0%{opacity: 0;}}@-webkit-keyframes kf_el_H8ICQSSxsSi_an_NJ6nraons{9.52%{opacity: 0;}16.67%{opacity: 1;}97.14%{opacity: 1;}100%{opacity: 0;}0%{opacity: 0;}}@keyframes kf_el_H8ICQSSxsSi_an_NJ6nraons{9.52%{opacity: 0;}16.67%{opacity: 1;}97.14%{opacity: 1;}100%{opacity: 0;}0%{opacity: 0;}}@-webkit-keyframes kf_el_vn57v1j49-M_an_dZkzXQcAu{9.52%{opacity: 0;}16.67%{opacity: 1;}97.14%{opacity: 1;}100%{opacity: 0;}0%{opacity: 0;}}@keyframes kf_el_vn57v1j49-M_an_dZkzXQcAu{9.52%{opacity: 0;}16.67%{opacity: 1;}97.14%{opacity: 1;}100%{opacity: 0;}0%{opacity: 0;}}@-webkit-keyframes kf_el_YJ9TcAw-LI5_an_s1T6Y0Az9{5.24%{opacity: 0;}12.38%{opacity: 1;}97.14%{opacity: 1;}100%{opacity: 0;}0%{opacity: 0;}}@keyframes kf_el_YJ9TcAw-LI5_an_s1T6Y0Az9{5.24%{opacity: 0;}12.38%{opacity: 1;}97.14%{opacity: 1;}100%{opacity: 0;}0%{opacity: 0;}}@-webkit-keyframes kf_el_zHQEbdF6lEa_an_Klz6geBiB{5.24%{opacity: 0;}12.38%{opacity: 1;}97.14%{opacity: 1;}100%{opacity: 0;}0%{opacity: 0;}}@keyframes kf_el_zHQEbdF6lEa_an_Klz6geBiB{5.24%{opacity: 0;}12.38%{opacity: 1;}97.14%{opacity: 1;}100%{opacity: 0;}0%{opacity: 0;}}@-webkit-keyframes kf_el_94roL3scihp_an_wH2Gk_VgZ{5.24%{opacity: 0;}12.38%{opacity: 1;}97.14%{opacity: 1;}100%{opacity: 0;}0%{opacity: 0;}}@keyframes kf_el_94roL3scihp_an_wH2Gk_VgZ{5.24%{opacity: 0;}12.38%{opacity: 1;}97.14%{opacity: 1;}100%{opacity: 0;}0%{opacity: 0;}}@-webkit-keyframes kf_el_pL5znM5MkJy_an_XkTbVRgmhE{0.48%{opacity: 0;}7.62%{opacity: 1;}97.14%{opacity: 1;}100%{opacity: 0;}0%{opacity: 0;}}@keyframes kf_el_pL5znM5MkJy_an_XkTbVRgmhE{0.48%{opacity: 0;}7.62%{opacity: 1;}97.14%{opacity: 1;}100%{opacity: 0;}0%{opacity: 0;}}@-webkit-keyframes kf_el_IKp_YLAhiIb_an_mtPZdvuj4{0.48%{opacity: 0;}7.62%{opacity: 1;}97.14%{opacity: 1;}100%{opacity: 0;}0%{opacity: 0;}}@keyframes kf_el_IKp_YLAhiIb_an_mtPZdvuj4{0.48%{opacity: 0;}7.62%{opacity: 1;}97.14%{opacity: 1;}100%{opacity: 0;}0%{opacity: 0;}}@-webkit-keyframes kf_el_rHAOfHr2gPS_an_L5HV3f7zx{0.48%{opacity: 0;}7.62%{opacity: 1;}97.14%{opacity: 1;}100%{opacity: 0;}0%{opacity: 0;}}@keyframes kf_el_rHAOfHr2gPS_an_L5HV3f7zx{0.48%{opacity: 0;}7.62%{opacity: 1;}97.14%{opacity: 1;}100%{opacity: 0;}0%{opacity: 0;}}@-webkit-keyframes kf_el_nk2nYfU5VB_an_Tu1y_dkkwk{7.14%{-webkit-transform: translate(77.79999542236328px, 8.600000381469727px) scale(0, 0) translate(-77.79999542236328px, -8.600000381469727px);transform: translate(77.79999542236328px, 8.600000381469727px) scale(0, 0) translate(-77.79999542236328px, -8.600000381469727px);}14.29%{-webkit-transform: translate(77.79999542236328px, 8.600000381469727px) scale(1, 1) translate(-77.79999542236328px, -8.600000381469727px);transform: translate(77.79999542236328px, 8.600000381469727px) scale(1, 1) translate(-77.79999542236328px, -8.600000381469727px);}21.43%{-webkit-transform: translate(77.79999542236328px, 8.600000381469727px) scale(0, 0) translate(-77.79999542236328px, -8.600000381469727px);transform: translate(77.79999542236328px, 8.600000381469727px) scale(0, 0) translate(-77.79999542236328px, -8.600000381469727px);}71.43%{-webkit-transform: translate(77.79999542236328px, 8.600000381469727px) scale(0, 0) translate(-77.79999542236328px, -8.600000381469727px);transform: translate(77.79999542236328px, 8.600000381469727px) scale(0, 0) translate(-77.79999542236328px, -8.600000381469727px);}78.57%{-webkit-transform: translate(77.79999542236328px, 8.600000381469727px) scale(1, 1) translate(-77.79999542236328px, -8.600000381469727px);transform: translate(77.79999542236328px, 8.600000381469727px) scale(1, 1) translate(-77.79999542236328px, -8.600000381469727px);}85.71%{-webkit-transform: translate(77.79999542236328px, 8.600000381469727px) scale(0, 0) translate(-77.79999542236328px, -8.600000381469727px);transform: translate(77.79999542236328px, 8.600000381469727px) scale(0, 0) translate(-77.79999542236328px, -8.600000381469727px);}0%{-webkit-transform: translate(77.79999542236328px, 8.600000381469727px) scale(0, 0) translate(-77.79999542236328px, -8.600000381469727px);transform: translate(77.79999542236328px, 8.600000381469727px) scale(0, 0) translate(-77.79999542236328px, -8.600000381469727px);}100%{-webkit-transform: translate(77.79999542236328px, 8.600000381469727px) scale(0, 0) translate(-77.79999542236328px, -8.600000381469727px);transform: translate(77.79999542236328px, 8.600000381469727px) scale(0, 0) translate(-77.79999542236328px, -8.600000381469727px);}}@keyframes kf_el_nk2nYfU5VB_an_Tu1y_dkkwk{7.14%{-webkit-transform: translate(77.79999542236328px, 8.600000381469727px) scale(0, 0) translate(-77.79999542236328px, -8.600000381469727px);transform: translate(77.79999542236328px, 8.600000381469727px) scale(0, 0) translate(-77.79999542236328px, -8.600000381469727px);}14.29%{-webkit-transform: translate(77.79999542236328px, 8.600000381469727px) scale(1, 1) translate(-77.79999542236328px, -8.600000381469727px);transform: translate(77.79999542236328px, 8.600000381469727px) scale(1, 1) translate(-77.79999542236328px, -8.600000381469727px);}21.43%{-webkit-transform: translate(77.79999542236328px, 8.600000381469727px) scale(0, 0) translate(-77.79999542236328px, -8.600000381469727px);transform: translate(77.79999542236328px, 8.600000381469727px) scale(0, 0) translate(-77.79999542236328px, -8.600000381469727px);}71.43%{-webkit-transform: translate(77.79999542236328px, 8.600000381469727px) scale(0, 0) translate(-77.79999542236328px, -8.600000381469727px);transform: translate(77.79999542236328px, 8.600000381469727px) scale(0, 0) translate(-77.79999542236328px, -8.600000381469727px);}78.57%{-webkit-transform: translate(77.79999542236328px, 8.600000381469727px) scale(1, 1) translate(-77.79999542236328px, -8.600000381469727px);transform: translate(77.79999542236328px, 8.600000381469727px) scale(1, 1) translate(-77.79999542236328px, -8.600000381469727px);}85.71%{-webkit-transform: translate(77.79999542236328px, 8.600000381469727px) scale(0, 0) translate(-77.79999542236328px, -8.600000381469727px);transform: translate(77.79999542236328px, 8.600000381469727px) scale(0, 0) translate(-77.79999542236328px, -8.600000381469727px);}0%{-webkit-transform: translate(77.79999542236328px, 8.600000381469727px) scale(0, 0) translate(-77.79999542236328px, -8.600000381469727px);transform: translate(77.79999542236328px, 8.600000381469727px) scale(0, 0) translate(-77.79999542236328px, -8.600000381469727px);}100%{-webkit-transform: translate(77.79999542236328px, 8.600000381469727px) scale(0, 0) translate(-77.79999542236328px, -8.600000381469727px);transform: translate(77.79999542236328px, 8.600000381469727px) scale(0, 0) translate(-77.79999542236328px, -8.600000381469727px);}}@-webkit-keyframes kf_el_nk2nYfU5VB_an_gCHOv5gYn{7.14%{-webkit-transform: translate(77.79999542236328px, 8.600000381469727px) rotate(0deg) translate(-77.79999542236328px, -8.600000381469727px);transform: translate(77.79999542236328px, 8.600000381469727px) rotate(0deg) translate(-77.79999542236328px, -8.600000381469727px);}21.43%{-webkit-transform: translate(77.79999542236328px, 8.600000381469727px) rotate(360deg) translate(-77.79999542236328px, -8.600000381469727px);transform: translate(77.79999542236328px, 8.600000381469727px) rotate(360deg) translate(-77.79999542236328px, -8.600000381469727px);}71.43%{-webkit-transform: translate(77.79999542236328px, 8.600000381469727px) rotate(0deg) translate(-77.79999542236328px, -8.600000381469727px);transform: translate(77.79999542236328px, 8.600000381469727px) rotate(0deg) translate(-77.79999542236328px, -8.600000381469727px);}85.71%{-webkit-transform: translate(77.79999542236328px, 8.600000381469727px) rotate(360deg) translate(-77.79999542236328px, -8.600000381469727px);transform: translate(77.79999542236328px, 8.600000381469727px) rotate(360deg) translate(-77.79999542236328px, -8.600000381469727px);}0%{-webkit-transform: translate(77.79999542236328px, 8.600000381469727px) rotate(0deg) translate(-77.79999542236328px, -8.600000381469727px);transform: translate(77.79999542236328px, 8.600000381469727px) rotate(0deg) translate(-77.79999542236328px, -8.600000381469727px);}100%{-webkit-transform: translate(77.79999542236328px, 8.600000381469727px) rotate(360deg) translate(-77.79999542236328px, -8.600000381469727px);transform: translate(77.79999542236328px, 8.600000381469727px) rotate(360deg) translate(-77.79999542236328px, -8.600000381469727px);}}@keyframes kf_el_nk2nYfU5VB_an_gCHOv5gYn{7.14%{-webkit-transform: translate(77.79999542236328px, 8.600000381469727px) rotate(0deg) translate(-77.79999542236328px, -8.600000381469727px);transform: translate(77.79999542236328px, 8.600000381469727px) rotate(0deg) translate(-77.79999542236328px, -8.600000381469727px);}21.43%{-webkit-transform: translate(77.79999542236328px, 8.600000381469727px) rotate(360deg) translate(-77.79999542236328px, -8.600000381469727px);transform: translate(77.79999542236328px, 8.600000381469727px) rotate(360deg) translate(-77.79999542236328px, -8.600000381469727px);}71.43%{-webkit-transform: translate(77.79999542236328px, 8.600000381469727px) rotate(0deg) translate(-77.79999542236328px, -8.600000381469727px);transform: translate(77.79999542236328px, 8.600000381469727px) rotate(0deg) translate(-77.79999542236328px, -8.600000381469727px);}85.71%{-webkit-transform: translate(77.79999542236328px, 8.600000381469727px) rotate(360deg) translate(-77.79999542236328px, -8.600000381469727px);transform: translate(77.79999542236328px, 8.600000381469727px) rotate(360deg) translate(-77.79999542236328px, -8.600000381469727px);}0%{-webkit-transform: translate(77.79999542236328px, 8.600000381469727px) rotate(0deg) translate(-77.79999542236328px, -8.600000381469727px);transform: translate(77.79999542236328px, 8.600000381469727px) rotate(0deg) translate(-77.79999542236328px, -8.600000381469727px);}100%{-webkit-transform: translate(77.79999542236328px, 8.600000381469727px) rotate(360deg) translate(-77.79999542236328px, -8.600000381469727px);transform: translate(77.79999542236328px, 8.600000381469727px) rotate(360deg) translate(-77.79999542236328px, -8.600000381469727px);}}@-webkit-keyframes kf_el_7bgo8J3Kpt_an_rYwXlakUTe{14.29%{-webkit-transform: translate(17.59999990463257px, 4.499999761581421px) scale(0, 0) translate(-17.59999990463257px, -4.499999761581421px);transform: translate(17.59999990463257px, 4.499999761581421px) scale(0, 0) translate(-17.59999990463257px, -4.499999761581421px);}21.43%{-webkit-transform: translate(17.59999990463257px, 4.499999761581421px) scale(1, 1) translate(-17.59999990463257px, -4.499999761581421px);transform: translate(17.59999990463257px, 4.499999761581421px) scale(1, 1) translate(-17.59999990463257px, -4.499999761581421px);}28.57%{-webkit-transform: translate(17.59999990463257px, 4.499999761581421px) scale(0, 0) translate(-17.59999990463257px, -4.499999761581421px);transform: translate(17.59999990463257px, 4.499999761581421px) scale(0, 0) translate(-17.59999990463257px, -4.499999761581421px);}57.14%{-webkit-transform: translate(17.59999990463257px, 4.499999761581421px) scale(0, 0) translate(-17.59999990463257px, -4.499999761581421px);transform: translate(17.59999990463257px, 4.499999761581421px) scale(0, 0) translate(-17.59999990463257px, -4.499999761581421px);}64.29%{-webkit-transform: translate(17.59999990463257px, 4.499999761581421px) scale(1, 1) translate(-17.59999990463257px, -4.499999761581421px);transform: translate(17.59999990463257px, 4.499999761581421px) scale(1, 1) translate(-17.59999990463257px, -4.499999761581421px);}71.43%{-webkit-transform: translate(17.59999990463257px, 4.499999761581421px) scale(0, 0) translate(-17.59999990463257px, -4.499999761581421px);transform: translate(17.59999990463257px, 4.499999761581421px) scale(0, 0) translate(-17.59999990463257px, -4.499999761581421px);}0%{-webkit-transform: translate(17.59999990463257px, 4.499999761581421px) scale(0, 0) translate(-17.59999990463257px, -4.499999761581421px);transform: translate(17.59999990463257px, 4.499999761581421px) scale(0, 0) translate(-17.59999990463257px, -4.499999761581421px);}100%{-webkit-transform: translate(17.59999990463257px, 4.499999761581421px) scale(0, 0) translate(-17.59999990463257px, -4.499999761581421px);transform: translate(17.59999990463257px, 4.499999761581421px) scale(0, 0) translate(-17.59999990463257px, -4.499999761581421px);}}@keyframes kf_el_7bgo8J3Kpt_an_rYwXlakUTe{14.29%{-webkit-transform: translate(17.59999990463257px, 4.499999761581421px) scale(0, 0) translate(-17.59999990463257px, -4.499999761581421px);transform: translate(17.59999990463257px, 4.499999761581421px) scale(0, 0) translate(-17.59999990463257px, -4.499999761581421px);}21.43%{-webkit-transform: translate(17.59999990463257px, 4.499999761581421px) scale(1, 1) translate(-17.59999990463257px, -4.499999761581421px);transform: translate(17.59999990463257px, 4.499999761581421px) scale(1, 1) translate(-17.59999990463257px, -4.499999761581421px);}28.57%{-webkit-transform: translate(17.59999990463257px, 4.499999761581421px) scale(0, 0) translate(-17.59999990463257px, -4.499999761581421px);transform: translate(17.59999990463257px, 4.499999761581421px) scale(0, 0) translate(-17.59999990463257px, -4.499999761581421px);}57.14%{-webkit-transform: translate(17.59999990463257px, 4.499999761581421px) scale(0, 0) translate(-17.59999990463257px, -4.499999761581421px);transform: translate(17.59999990463257px, 4.499999761581421px) scale(0, 0) translate(-17.59999990463257px, -4.499999761581421px);}64.29%{-webkit-transform: translate(17.59999990463257px, 4.499999761581421px) scale(1, 1) translate(-17.59999990463257px, -4.499999761581421px);transform: translate(17.59999990463257px, 4.499999761581421px) scale(1, 1) translate(-17.59999990463257px, -4.499999761581421px);}71.43%{-webkit-transform: translate(17.59999990463257px, 4.499999761581421px) scale(0, 0) translate(-17.59999990463257px, -4.499999761581421px);transform: translate(17.59999990463257px, 4.499999761581421px) scale(0, 0) translate(-17.59999990463257px, -4.499999761581421px);}0%{-webkit-transform: translate(17.59999990463257px, 4.499999761581421px) scale(0, 0) translate(-17.59999990463257px, -4.499999761581421px);transform: translate(17.59999990463257px, 4.499999761581421px) scale(0, 0) translate(-17.59999990463257px, -4.499999761581421px);}100%{-webkit-transform: translate(17.59999990463257px, 4.499999761581421px) scale(0, 0) translate(-17.59999990463257px, -4.499999761581421px);transform: translate(17.59999990463257px, 4.499999761581421px) scale(0, 0) translate(-17.59999990463257px, -4.499999761581421px);}}@-webkit-keyframes kf_el_7bgo8J3Kpt_an_TASwU0AKI{14.29%{-webkit-transform: translate(17.59999990463257px, 4.499999761581421px) rotate(0deg) translate(-17.59999990463257px, -4.499999761581421px);transform: translate(17.59999990463257px, 4.499999761581421px) rotate(0deg) translate(-17.59999990463257px, -4.499999761581421px);}28.57%{-webkit-transform: translate(17.59999990463257px, 4.499999761581421px) rotate(360deg) translate(-17.59999990463257px, -4.499999761581421px);transform: translate(17.59999990463257px, 4.499999761581421px) rotate(360deg) translate(-17.59999990463257px, -4.499999761581421px);}57.14%{-webkit-transform: translate(17.59999990463257px, 4.499999761581421px) rotate(0deg) translate(-17.59999990463257px, -4.499999761581421px);transform: translate(17.59999990463257px, 4.499999761581421px) rotate(0deg) translate(-17.59999990463257px, -4.499999761581421px);}71.43%{-webkit-transform: translate(17.59999990463257px, 4.499999761581421px) rotate(360deg) translate(-17.59999990463257px, -4.499999761581421px);transform: translate(17.59999990463257px, 4.499999761581421px) rotate(360deg) translate(-17.59999990463257px, -4.499999761581421px);}0%{-webkit-transform: translate(17.59999990463257px, 4.499999761581421px) rotate(0deg) translate(-17.59999990463257px, -4.499999761581421px);transform: translate(17.59999990463257px, 4.499999761581421px) rotate(0deg) translate(-17.59999990463257px, -4.499999761581421px);}100%{-webkit-transform: translate(17.59999990463257px, 4.499999761581421px) rotate(360deg) translate(-17.59999990463257px, -4.499999761581421px);transform: translate(17.59999990463257px, 4.499999761581421px) rotate(360deg) translate(-17.59999990463257px, -4.499999761581421px);}}@keyframes kf_el_7bgo8J3Kpt_an_TASwU0AKI{14.29%{-webkit-transform: translate(17.59999990463257px, 4.499999761581421px) rotate(0deg) translate(-17.59999990463257px, -4.499999761581421px);transform: translate(17.59999990463257px, 4.499999761581421px) rotate(0deg) translate(-17.59999990463257px, -4.499999761581421px);}28.57%{-webkit-transform: translate(17.59999990463257px, 4.499999761581421px) rotate(360deg) translate(-17.59999990463257px, -4.499999761581421px);transform: translate(17.59999990463257px, 4.499999761581421px) rotate(360deg) translate(-17.59999990463257px, -4.499999761581421px);}57.14%{-webkit-transform: translate(17.59999990463257px, 4.499999761581421px) rotate(0deg) translate(-17.59999990463257px, -4.499999761581421px);transform: translate(17.59999990463257px, 4.499999761581421px) rotate(0deg) translate(-17.59999990463257px, -4.499999761581421px);}71.43%{-webkit-transform: translate(17.59999990463257px, 4.499999761581421px) rotate(360deg) translate(-17.59999990463257px, -4.499999761581421px);transform: translate(17.59999990463257px, 4.499999761581421px) rotate(360deg) translate(-17.59999990463257px, -4.499999761581421px);}0%{-webkit-transform: translate(17.59999990463257px, 4.499999761581421px) rotate(0deg) translate(-17.59999990463257px, -4.499999761581421px);transform: translate(17.59999990463257px, 4.499999761581421px) rotate(0deg) translate(-17.59999990463257px, -4.499999761581421px);}100%{-webkit-transform: translate(17.59999990463257px, 4.499999761581421px) rotate(360deg) translate(-17.59999990463257px, -4.499999761581421px);transform: translate(17.59999990463257px, 4.499999761581421px) rotate(360deg) translate(-17.59999990463257px, -4.499999761581421px);}}@-webkit-keyframes kf_el_vNX2cGu6Sm_an_7lzLi1DsB{0%{-webkit-transform: translate(12.09999942779541px, 60.99999809265137px) rotate(0deg) translate(-12.09999942779541px, -60.99999809265137px);transform: translate(12.09999942779541px, 60.99999809265137px) rotate(0deg) translate(-12.09999942779541px, -60.99999809265137px);}14.29%{-webkit-transform: translate(12.09999942779541px, 60.99999809265137px) rotate(360deg) translate(-12.09999942779541px, -60.99999809265137px);transform: translate(12.09999942779541px, 60.99999809265137px) rotate(360deg) translate(-12.09999942779541px, -60.99999809265137px);}42.86%{-webkit-transform: translate(12.09999942779541px, 60.99999809265137px) rotate(0deg) translate(-12.09999942779541px, -60.99999809265137px);transform: translate(12.09999942779541px, 60.99999809265137px) rotate(0deg) translate(-12.09999942779541px, -60.99999809265137px);}57.14%{-webkit-transform: translate(12.09999942779541px, 60.99999809265137px) rotate(360deg) translate(-12.09999942779541px, -60.99999809265137px);transform: translate(12.09999942779541px, 60.99999809265137px) rotate(360deg) translate(-12.09999942779541px, -60.99999809265137px);}100%{-webkit-transform: translate(12.09999942779541px, 60.99999809265137px) rotate(360deg) translate(-12.09999942779541px, -60.99999809265137px);transform: translate(12.09999942779541px, 60.99999809265137px) rotate(360deg) translate(-12.09999942779541px, -60.99999809265137px);}}@keyframes kf_el_vNX2cGu6Sm_an_7lzLi1DsB{0%{-webkit-transform: translate(12.09999942779541px, 60.99999809265137px) rotate(0deg) translate(-12.09999942779541px, -60.99999809265137px);transform: translate(12.09999942779541px, 60.99999809265137px) rotate(0deg) translate(-12.09999942779541px, -60.99999809265137px);}14.29%{-webkit-transform: translate(12.09999942779541px, 60.99999809265137px) rotate(360deg) translate(-12.09999942779541px, -60.99999809265137px);transform: translate(12.09999942779541px, 60.99999809265137px) rotate(360deg) translate(-12.09999942779541px, -60.99999809265137px);}42.86%{-webkit-transform: translate(12.09999942779541px, 60.99999809265137px) rotate(0deg) translate(-12.09999942779541px, -60.99999809265137px);transform: translate(12.09999942779541px, 60.99999809265137px) rotate(0deg) translate(-12.09999942779541px, -60.99999809265137px);}57.14%{-webkit-transform: translate(12.09999942779541px, 60.99999809265137px) rotate(360deg) translate(-12.09999942779541px, -60.99999809265137px);transform: translate(12.09999942779541px, 60.99999809265137px) rotate(360deg) translate(-12.09999942779541px, -60.99999809265137px);}100%{-webkit-transform: translate(12.09999942779541px, 60.99999809265137px) rotate(360deg) translate(-12.09999942779541px, -60.99999809265137px);transform: translate(12.09999942779541px, 60.99999809265137px) rotate(360deg) translate(-12.09999942779541px, -60.99999809265137px);}}@-webkit-keyframes kf_el_vNX2cGu6Sm_an_PJirB_xWz{0%{-webkit-transform: translate(12.09999942779541px, 60.99999809265137px) scale(0, 0) translate(-12.09999942779541px, -60.99999809265137px);transform: translate(12.09999942779541px, 60.99999809265137px) scale(0, 0) translate(-12.09999942779541px, -60.99999809265137px);}7.14%{-webkit-transform: translate(12.09999942779541px, 60.99999809265137px) scale(1, 1) translate(-12.09999942779541px, -60.99999809265137px);transform: translate(12.09999942779541px, 60.99999809265137px) scale(1, 1) translate(-12.09999942779541px, -60.99999809265137px);}14.29%{-webkit-transform: translate(12.09999942779541px, 60.99999809265137px) scale(0, 0) translate(-12.09999942779541px, -60.99999809265137px);transform: translate(12.09999942779541px, 60.99999809265137px) scale(0, 0) translate(-12.09999942779541px, -60.99999809265137px);}42.86%{-webkit-transform: translate(12.09999942779541px, 60.99999809265137px) scale(0, 0) translate(-12.09999942779541px, -60.99999809265137px);transform: translate(12.09999942779541px, 60.99999809265137px) scale(0, 0) translate(-12.09999942779541px, -60.99999809265137px);}50%{-webkit-transform: translate(12.09999942779541px, 60.99999809265137px) scale(1, 1) translate(-12.09999942779541px, -60.99999809265137px);transform: translate(12.09999942779541px, 60.99999809265137px) scale(1, 1) translate(-12.09999942779541px, -60.99999809265137px);}57.14%{-webkit-transform: translate(12.09999942779541px, 60.99999809265137px) scale(0, 0) translate(-12.09999942779541px, -60.99999809265137px);transform: translate(12.09999942779541px, 60.99999809265137px) scale(0, 0) translate(-12.09999942779541px, -60.99999809265137px);}100%{-webkit-transform: translate(12.09999942779541px, 60.99999809265137px) scale(0, 0) translate(-12.09999942779541px, -60.99999809265137px);transform: translate(12.09999942779541px, 60.99999809265137px) scale(0, 0) translate(-12.09999942779541px, -60.99999809265137px);}}@keyframes kf_el_vNX2cGu6Sm_an_PJirB_xWz{0%{-webkit-transform: translate(12.09999942779541px, 60.99999809265137px) scale(0, 0) translate(-12.09999942779541px, -60.99999809265137px);transform: translate(12.09999942779541px, 60.99999809265137px) scale(0, 0) translate(-12.09999942779541px, -60.99999809265137px);}7.14%{-webkit-transform: translate(12.09999942779541px, 60.99999809265137px) scale(1, 1) translate(-12.09999942779541px, -60.99999809265137px);transform: translate(12.09999942779541px, 60.99999809265137px) scale(1, 1) translate(-12.09999942779541px, -60.99999809265137px);}14.29%{-webkit-transform: translate(12.09999942779541px, 60.99999809265137px) scale(0, 0) translate(-12.09999942779541px, -60.99999809265137px);transform: translate(12.09999942779541px, 60.99999809265137px) scale(0, 0) translate(-12.09999942779541px, -60.99999809265137px);}42.86%{-webkit-transform: translate(12.09999942779541px, 60.99999809265137px) scale(0, 0) translate(-12.09999942779541px, -60.99999809265137px);transform: translate(12.09999942779541px, 60.99999809265137px) scale(0, 0) translate(-12.09999942779541px, -60.99999809265137px);}50%{-webkit-transform: translate(12.09999942779541px, 60.99999809265137px) scale(1, 1) translate(-12.09999942779541px, -60.99999809265137px);transform: translate(12.09999942779541px, 60.99999809265137px) scale(1, 1) translate(-12.09999942779541px, -60.99999809265137px);}57.14%{-webkit-transform: translate(12.09999942779541px, 60.99999809265137px) scale(0, 0) translate(-12.09999942779541px, -60.99999809265137px);transform: translate(12.09999942779541px, 60.99999809265137px) scale(0, 0) translate(-12.09999942779541px, -60.99999809265137px);}100%{-webkit-transform: translate(12.09999942779541px, 60.99999809265137px) scale(0, 0) translate(-12.09999942779541px, -60.99999809265137px);transform: translate(12.09999942779541px, 60.99999809265137px) scale(0, 0) translate(-12.09999942779541px, -60.99999809265137px);}}#el_3bvQ6tmOS *{-webkit-animation-duration: 7s;animation-duration: 7s;-webkit-animation-iteration-count: infinite;animation-iteration-count: infinite;-webkit-animation-timing-function: cubic-bezier(0, 0, 1, 1);animation-timing-function: cubic-bezier(0, 0, 1, 1);}#el_sUDZ5OcetC{fill: #FFFFFF;}#el_MhPaO1WQdM{fill: #132A3B;}#el_AXNlOhhq3Q{fill: #132A3B;}#el_vNX2cGu6Sm{fill-rule: evenodd;clip-rule: evenodd;fill: #132A3B;}#el_KzJWJITDrI{fill: #BAECE6;}#el_sVZHiKWQN0{fill: #706F6F;}#el_nk2nYfU5VB{fill-rule: evenodd;clip-rule: evenodd;fill: #706F6F;}#el_7bgo8J3Kpt{fill-rule: evenodd;clip-rule: evenodd;fill: #132A3B;}#el_TdkKnWOKWM{fill: #FFFFFF;}#el_OwLtboR_LK{fill: #FFFFFF;}#el_H62eoGKObQ{fill-rule: evenodd;clip-rule: evenodd;fill: #FFFFFF;}#el_YTnzdJNNPR{fill-rule: evenodd;clip-rule: evenodd;fill: #06FFA4;}#el_dmixr0snQ_{fill-rule: evenodd;clip-rule: evenodd;fill: #06FFA4;}#el_h-MZqLlp3m{fill-rule: evenodd;clip-rule: evenodd;fill: #02BF7B;}#el_sVs-5Semucp{fill-rule: evenodd;clip-rule: evenodd;}#el_Hx9Bm-cBLFe{fill-rule: evenodd;clip-rule: evenodd;fill: #132A3B;}#el_Fy1LODYC0Jl{fill-rule: evenodd;clip-rule: evenodd;stroke: #132A38;stroke-miterlimit: 10;}#el_a6U0cCC_JrN{fill-rule: evenodd;clip-rule: evenodd;fill: #132A3B;stroke: #132A3B;stroke-width: 0.25;stroke-miterlimit: 10;}#el_lpnlTFKEYa6{fill-rule: evenodd;clip-rule: evenodd;fill: none;stroke: #06FFA4;stroke-width: 0.5;stroke-linecap: round;stroke-miterlimit: 10;}#el_MVyBmfxzOUj{fill-rule: evenodd;clip-rule: evenodd;fill: none;stroke: #06FFA4;stroke-width: 0.5;stroke-linecap: round;stroke-miterlimit: 10;}#el_uPJZdGK6i1V{fill-rule: evenodd;clip-rule: evenodd;fill: none;stroke: #06FFA4;stroke-width: 0.5;stroke-linecap: round;stroke-miterlimit: 10;}#el_xC02w0K0lf_{fill-rule: evenodd;clip-rule: evenodd;fill: none;stroke: #06FFA4;stroke-width: 0.5;stroke-linecap: round;stroke-miterlimit: 10;}#el_eAN---t3Zyh{fill-rule: evenodd;clip-rule: evenodd;fill: none;stroke: #F4F6F9;stroke-width: 0.5;stroke-linecap: round;stroke-miterlimit: 10;}#el_Gx8p7SQeWmC{fill: #06FFA4;}#el__nOoTr4mrRv{fill-rule: evenodd;clip-rule: evenodd;fill: #132A3B;}#el_Me9uKLWBYPM{fill-rule: evenodd;clip-rule: evenodd;fill: #06FFA4;}#el_z61IbrVvmlk{fill: #132A3B;}#el_mWDMiXa3PiS{fill: none;stroke: #132A3B;stroke-width: 0.25;stroke-miterlimit: 10;-webkit-animation-fill-mode: backwards;animation-fill-mode: backwards;opacity: 0;-webkit-animation-name: kf_el_mWDMiXa3PiS_an_-izXaODGG;animation-name: kf_el_mWDMiXa3PiS_an_-izXaODGG;-webkit-animation-timing-function: cubic-bezier(0, 0, 1, 1);animation-timing-function: cubic-bezier(0, 0, 1, 1);}#el_vn57v1j49-M{fill-rule: evenodd;clip-rule: evenodd;fill: #BDC9CD;-webkit-animation-fill-mode: backwards;animation-fill-mode: backwards;opacity: 0;-webkit-animation-name: kf_el_vn57v1j49-M_an_dZkzXQcAu;animation-name: kf_el_vn57v1j49-M_an_dZkzXQcAu;-webkit-animation-timing-function: cubic-bezier(0, 0, 1, 1);animation-timing-function: cubic-bezier(0, 0, 1, 1);}#el_afiHOUBN2FN{fill: #F4F6F9;}#el_3iwVmSqXWjw{fill: none;stroke: #F4F6F9;stroke-width: 0.25;stroke-miterlimit: 10;-webkit-animation-fill-mode: backwards;animation-fill-mode: backwards;opacity: 0;-webkit-animation-name: kf_el_3iwVmSqXWjw_an_Qewc1LiUJ;animation-name: kf_el_3iwVmSqXWjw_an_Qewc1LiUJ;-webkit-animation-timing-function: cubic-bezier(0, 0, 1, 1);animation-timing-function: cubic-bezier(0, 0, 1, 1);}#el_94roL3scihp{fill-rule: evenodd;clip-rule: evenodd;fill: #919A9E;-webkit-animation-fill-mode: backwards;animation-fill-mode: backwards;opacity: 0;-webkit-animation-name: kf_el_94roL3scihp_an_wH2Gk_VgZ;animation-name: kf_el_94roL3scihp_an_wH2Gk_VgZ;-webkit-animation-timing-function: cubic-bezier(0, 0, 1, 1);animation-timing-function: cubic-bezier(0, 0, 1, 1);}#el_-2RygRb_5S0{fill: #F4F6F9;}#el_YJ9TcAw-LI5{fill: none;stroke: #F4F6F9;stroke-width: 0.25;stroke-miterlimit: 10;-webkit-animation-fill-mode: backwards;animation-fill-mode: backwards;opacity: 0;-webkit-animation-name: kf_el_YJ9TcAw-LI5_an_s1T6Y0Az9;animation-name: kf_el_YJ9TcAw-LI5_an_s1T6Y0Az9;-webkit-animation-timing-function: cubic-bezier(0, 0, 1, 1);animation-timing-function: cubic-bezier(0, 0, 1, 1);}#el_rHAOfHr2gPS{fill-rule: evenodd;clip-rule: evenodd;fill: #788081;-webkit-animation-fill-mode: backwards;animation-fill-mode: backwards;opacity: 0;-webkit-animation-name: kf_el_rHAOfHr2gPS_an_L5HV3f7zx;animation-name: kf_el_rHAOfHr2gPS_an_L5HV3f7zx;-webkit-animation-timing-function: cubic-bezier(0, 0, 1, 1);animation-timing-function: cubic-bezier(0, 0, 1, 1);}#el_E58HmhVL34m{fill: #F4F6F9;}#el_pL5znM5MkJy{fill: none;stroke: #F4F6F9;stroke-width: 0.25;stroke-miterlimit: 10;-webkit-animation-fill-mode: backwards;animation-fill-mode: backwards;opacity: 0;-webkit-animation-name: kf_el_pL5znM5MkJy_an_XkTbVRgmhE;animation-name: kf_el_pL5znM5MkJy_an_XkTbVRgmhE;-webkit-animation-timing-function: cubic-bezier(0, 0, 1, 1);animation-timing-function: cubic-bezier(0, 0, 1, 1);}#el_UyQICHdAeTs{opacity: 0.1;fill-rule: evenodd;clip-rule: evenodd;fill: #132A3B;stroke: #132A3B;stroke-miterlimit: 10;}#el_vNX2cGu6Sm_an_PJirB_xWz{-webkit-animation-fill-mode: backwards;animation-fill-mode: backwards;-webkit-transform: translate(12.09999942779541px, 60.99999809265137px) scale(0, 0) translate(-12.09999942779541px, -60.99999809265137px);transform: translate(12.09999942779541px, 60.99999809265137px) scale(0, 0) translate(-12.09999942779541px, -60.99999809265137px);-webkit-animation-name: kf_el_vNX2cGu6Sm_an_PJirB_xWz;animation-name: kf_el_vNX2cGu6Sm_an_PJirB_xWz;-webkit-animation-timing-function: cubic-bezier(0, 0, 1, 1);animation-timing-function: cubic-bezier(0, 0, 1, 1);}#el_vNX2cGu6Sm_an_7lzLi1DsB{-webkit-animation-fill-mode: backwards;animation-fill-mode: backwards;-webkit-transform: translate(12.09999942779541px, 60.99999809265137px) rotate(0deg) translate(-12.09999942779541px, -60.99999809265137px);transform: translate(12.09999942779541px, 60.99999809265137px) rotate(0deg) translate(-12.09999942779541px, -60.99999809265137px);-webkit-animation-name: kf_el_vNX2cGu6Sm_an_7lzLi1DsB;animation-name: kf_el_vNX2cGu6Sm_an_7lzLi1DsB;-webkit-animation-timing-function: cubic-bezier(0, 0, 1, 1);animation-timing-function: cubic-bezier(0, 0, 1, 1);}#el_7bgo8J3Kpt_an_TASwU0AKI{-webkit-animation-fill-mode: backwards;animation-fill-mode: backwards;-webkit-transform: translate(17.59999990463257px, 4.499999761581421px) rotate(0deg) translate(-17.59999990463257px, -4.499999761581421px);transform: translate(17.59999990463257px, 4.499999761581421px) rotate(0deg) translate(-17.59999990463257px, -4.499999761581421px);-webkit-animation-name: kf_el_7bgo8J3Kpt_an_TASwU0AKI;animation-name: kf_el_7bgo8J3Kpt_an_TASwU0AKI;-webkit-animation-timing-function: cubic-bezier(0, 0, 1, 1);animation-timing-function: cubic-bezier(0, 0, 1, 1);}#el_7bgo8J3Kpt_an_rYwXlakUTe{-webkit-animation-fill-mode: backwards;animation-fill-mode: backwards;-webkit-transform: translate(17.59999990463257px, 4.499999761581421px) scale(0, 0) translate(-17.59999990463257px, -4.499999761581421px);transform: translate(17.59999990463257px, 4.499999761581421px) scale(0, 0) translate(-17.59999990463257px, -4.499999761581421px);-webkit-animation-name: kf_el_7bgo8J3Kpt_an_rYwXlakUTe;animation-name: kf_el_7bgo8J3Kpt_an_rYwXlakUTe;-webkit-animation-timing-function: cubic-bezier(0, 0, 1, 1);animation-timing-function: cubic-bezier(0, 0, 1, 1);}#el_nk2nYfU5VB_an_gCHOv5gYn{-webkit-animation-fill-mode: backwards;animation-fill-mode: backwards;-webkit-transform: translate(77.79999542236328px, 8.600000381469727px) rotate(0deg) translate(-77.79999542236328px, -8.600000381469727px);transform: translate(77.79999542236328px, 8.600000381469727px) rotate(0deg) translate(-77.79999542236328px, -8.600000381469727px);-webkit-animation-name: kf_el_nk2nYfU5VB_an_gCHOv5gYn;animation-name: kf_el_nk2nYfU5VB_an_gCHOv5gYn;-webkit-animation-timing-function: cubic-bezier(0, 0, 1, 1);animation-timing-function: cubic-bezier(0, 0, 1, 1);}#el_nk2nYfU5VB_an_Tu1y_dkkwk{-webkit-animation-fill-mode: backwards;animation-fill-mode: backwards;-webkit-transform: translate(77.79999542236328px, 8.600000381469727px) scale(0, 0) translate(-77.79999542236328px, -8.600000381469727px);transform: translate(77.79999542236328px, 8.600000381469727px) scale(0, 0) translate(-77.79999542236328px, -8.600000381469727px);-webkit-animation-name: kf_el_nk2nYfU5VB_an_Tu1y_dkkwk;animation-name: kf_el_nk2nYfU5VB_an_Tu1y_dkkwk;-webkit-animation-timing-function: cubic-bezier(0, 0, 1, 1);animation-timing-function: cubic-bezier(0, 0, 1, 1);}#el_IKp_YLAhiIb{-webkit-animation-fill-mode: backwards;animation-fill-mode: backwards;opacity: 0;-webkit-animation-name: kf_el_IKp_YLAhiIb_an_mtPZdvuj4;animation-name: kf_el_IKp_YLAhiIb_an_mtPZdvuj4;-webkit-animation-timing-function: cubic-bezier(0, 0, 1, 1);animation-timing-function: cubic-bezier(0, 0, 1, 1);}#el_zHQEbdF6lEa{-webkit-animation-fill-mode: backwards;animation-fill-mode: backwards;opacity: 0;-webkit-animation-name: kf_el_zHQEbdF6lEa_an_Klz6geBiB;animation-name: kf_el_zHQEbdF6lEa_an_Klz6geBiB;-webkit-animation-timing-function: cubic-bezier(0, 0, 1, 1);animation-timing-function: cubic-bezier(0, 0, 1, 1);}#el_H8ICQSSxsSi{-webkit-animation-fill-mode: backwards;animation-fill-mode: backwards;opacity: 0;-webkit-animation-name: kf_el_H8ICQSSxsSi_an_NJ6nraons;animation-name: kf_el_H8ICQSSxsSi_an_NJ6nraons;-webkit-animation-timing-function: cubic-bezier(0, 0, 1, 1);animation-timing-function: cubic-bezier(0, 0, 1, 1);}#el_Me9uKLWBYPM_an_nwJXe2H6D{-webkit-animation-fill-mode: backwards;animation-fill-mode: backwards;-webkit-transform: translate(41.69999694824219px, 63.70000076293945px) scale(0, 0) translate(-41.69999694824219px, -63.70000076293945px);transform: translate(41.69999694824219px, 63.70000076293945px) scale(0, 0) translate(-41.69999694824219px, -63.70000076293945px);-webkit-animation-name: kf_el_Me9uKLWBYPM_an_nwJXe2H6D;animation-name: kf_el_Me9uKLWBYPM_an_nwJXe2H6D;-webkit-animation-timing-function: cubic-bezier(0, 0, 1, 1);animation-timing-function: cubic-bezier(0, 0, 1, 1);}#el_Y9ClTRtMv6H{-webkit-animation-fill-mode: backwards;animation-fill-mode: backwards;opacity: 0;-webkit-animation-name: kf_el_Y9ClTRtMv6H_an_XdOD87r1m;animation-name: kf_el_Y9ClTRtMv6H_an_XdOD87r1m;-webkit-animation-timing-function: cubic-bezier(0, 0, 1, 1);animation-timing-function: cubic-bezier(0, 0, 1, 1);}</style>

<path d="M20.5,61.1c0.5,0,0.9-0.4,0.9-0.9s-0.4-0.9-0.9-0.9c-0.5,0-0.9,0.4-0.9,0.9S19.9,61.1,20.5,61.1z M20.5,59.7&#10;&#9;c0.3,0,0.5,0.2,0.5,0.5s-0.2,0.5-0.5,0.5S20,60.4,20,60.2S20.2,59.7,20.5,59.7z" id="el_sUDZ5OcetC"/>
<path d="M83.2,60.6h0.5c0.1,0,0.1,0.1,0.1,0.1v0.5c0,0.1,0.1,0.1,0.1,0.1h0.2c0.1,0,0.1-0.1,0.1-0.1v-0.5&#10;&#9;c0-0.1,0.1-0.1,0.1-0.1h0.5c0.1,0,0.1-0.1,0.1-0.1v-0.2c0-0.1-0.1-0.1-0.1-0.1h-0.5c-0.1,0-0.1-0.1-0.1-0.1v-0.5&#10;&#9;c0-0.1-0.1-0.1-0.1-0.1h-0.2c-0.1,0-0.1,0.1-0.1,0.1v0.5c0,0.1-0.1,0.1-0.1,0.1h-0.5c-0.1,0-0.1,0.1-0.1,0.1v0.2&#10;&#9;C83.1,60.6,83.1,60.6,83.2,60.6z" id="el_MhPaO1WQdM"/>
<path d="M12.4,75.6h0.5c0.1,0,0.1,0.1,0.1,0.1v0.5c0,0.1,0.1,0.1,0.1,0.1h0.2c0.1,0,0.1-0.1,0.1-0.1v-0.5&#10;&#9;c0-0.1,0.1-0.1,0.1-0.1h0.5c0.1,0,0.1-0.1,0.1-0.1v-0.2c0-0.1-0.1-0.1-0.1-0.1h-0.5c-0.1,0-0.1-0.1-0.1-0.1v-0.5&#10;&#9;c0-0.1-0.1-0.1-0.1-0.1h-0.2c-0.1,0-0.1,0.1-0.1,0.1v0.5c0,0.1-0.1,0.1-0.1,0.1h-0.5c-0.1,0-0.1,0.1-0.1,0.1v0.2&#10;&#9;C12.3,75.6,12.3,75.6,12.4,75.6z" id="el_AXNlOhhq3Q"/>
<g id="el_vNX2cGu6Sm_an_7lzLi1DsB" data-animator-group="true" data-animator-type="1"><g id="el_vNX2cGu6Sm_an_PJirB_xWz" data-animator-group="true" data-animator-type="2"><path d="M15.4,61c-1.6-0.3-3-1.6-3.3-3.2c-0.4,1.6-1.7,2.9-3.3,3.2c1.6,0.3,3,1.6,3.3,3.2C12.5,62.5,13.8,61.3,15.4,61z&#10;&#9;" id="el_vNX2cGu6Sm"/></g></g>
<circle cx="73" cy="9.7" r="0.7" id="el_KzJWJITDrI"/>
<circle cx="12.1" cy="13.2" r="0.8" id="el_sVZHiKWQN0"/>
<g id="el_nk2nYfU5VB_an_gCHOv5gYn" data-animator-group="true" data-animator-type="1"><g id="el_nk2nYfU5VB_an_Tu1y_dkkwk" data-animator-group="true" data-animator-type="2"><path d="M79.7,8.6c-0.9-0.2-1.7-0.9-1.9-1.8c-0.2,0.9-1,1.7-1.9,1.8c0.9,0.2,1.7,0.9,1.9,1.8C78,9.5,78.7,8.7,79.7,8.6z&#10;&#9;" id="el_nk2nYfU5VB"/></g></g>
<g id="el_7bgo8J3Kpt_an_TASwU0AKI" data-animator-group="true" data-animator-type="1"><g id="el_7bgo8J3Kpt_an_rYwXlakUTe" data-animator-group="true" data-animator-type="2"><path d="M20.9,4.5c-1.6-0.3-3-1.6-3.3-3.2c-0.4,1.6-1.7,2.9-3.3,3.2c1.6,0.3,3,1.6,3.3,3.2C18,6,19.3,4.8,20.9,4.5z" id="el_7bgo8J3Kpt"/></g></g>
<path d="M67.2,32.6c0.4,0,0.7-0.3,0.7-0.7c0-0.4-0.3-0.7-0.7-0.7s-0.7,0.3-0.7,0.7C66.5,32.3,66.8,32.6,67.2,32.6z&#10;&#9; M67.2,31.6c0.2,0,0.3,0.2,0.3,0.3c0,0.2-0.2,0.3-0.3,0.3c-0.2,0-0.3-0.2-0.3-0.3C66.9,31.7,67,31.6,67.2,31.6z" id="el_TdkKnWOKWM"/>
<path d="M78.2,72.6c0.4,0,0.7-0.3,0.7-0.7c0-0.4-0.3-0.7-0.7-0.7s-0.7,0.3-0.7,0.7C77.5,72.3,77.8,72.6,78.2,72.6z&#10;&#9; M78.2,71.6c0.2,0,0.3,0.2,0.3,0.3c0,0.2-0.2,0.3-0.3,0.3c-0.2,0-0.3-0.2-0.3-0.3C77.9,71.7,78,71.6,78.2,71.6z" id="el_OwLtboR_LK"/>
<path d="M82.2,41.4c-0.9-0.2-1.7-0.9-1.9-1.8c-0.2,0.9-1,1.7-1.9,1.8c0.9,0.2,1.7,0.9,1.9,1.8&#10;&#9;C80.5,42.3,81.2,41.6,82.2,41.4z" id="el_H62eoGKObQ"/>
<g id="el_guu_8Eb-17">
	<rect x="49.7" y="75.5" width="6.2" height="1.9" id="el_YTnzdJNNPR"/>
	<ellipse cx="45.7" cy="114.8" rx="25.7" ry="2.1" id="el_dmixr0snQ_"/>
	<ellipse cx="45.7" cy="114.3" rx="17.6" ry="1" id="el_h-MZqLlp3m"/>
	<path d="M64,39.5l-0.5,66.5c0,2.7-2.3,4.9-5,4.9l-24.1-0.2c-2.7,0-4.9-2.3-4.9-5L30,39.3c0-2.7,2.3-4.9,5-4.9l24.2,0.2&#10;&#9;&#9;C61.9,34.6,64.1,36.8,64,39.5z" id="el_sVs-5Semucp"/>
	<path d="M62.4,39.5l-0.5,64.6c0,2.6-2.1,4.7-4.7,4.6l-22.6-0.2c-2.6,0-4.7-2.1-4.6-4.7l0.5-64.6c0-2.6,2.1-4.7,4.7-4.6&#10;&#9;&#9;l22.6,0.2C60.4,34.8,62.5,37,62.4,39.5z" id="el_Hx9Bm-cBLFe"/>
	<path d="M53.7,37.9l4,0c1,0,1.8,0.8,1.8,1.8v0c0,1-0.8,1.8-1.8,1.8l-4,0c-1,0-1.8-0.8-1.8-1.8v0&#10;&#9;&#9;C51.9,38.7,52.7,37.9,53.7,37.9z" id="el_Fy1LODYC0Jl"/>
	<path d="M68,64" id="el_a6U0cCC_JrN"/>
	<line x1="34.3" y1="86.6" x2="57.3" y2="86.6" id="el_lpnlTFKEYa6"/>
	<line x1="34.3" y1="88.4" x2="57.3" y2="88.4" id="el_MVyBmfxzOUj"/>
	<line x1="34.3" y1="90.3" x2="57.3" y2="90.3" id="el_uPJZdGK6i1V"/>
	<line x1="34.3" y1="91.9" x2="57.3" y2="91.9" id="el_xC02w0K0lf_"/>
	<line x1="34.3" y1="93.8" x2="57.3" y2="93.8" id="el_eAN---t3Zyh"/>
	<path d="M46.5,45.5c2.5,0,4.4,2,4.4,4.5l2.2,0c0-3.7-2.9-6.7-6.6-6.7c-3.7,0-6.7,2.9-6.7,6.6l2.2,0&#10;&#9;&#9;C42,47.5,44,45.5,46.5,45.5z" id="el_Gx8p7SQeWmC"/>
	<path d="M55.1,61C55.1,61,55.1,61,55.1,61c-0.1-0.2-0.2-0.2-0.3-0.3c-0.1-0.1-0.3-0.1-0.4-0.2c-0.3,0-0.6,0.1-0.9,0.2&#10;&#9;&#9;c-0.3,0.1-0.5,0.3-0.8,0.4c-0.3,0.1-0.6-0.2-1-0.3c-0.4,0-0.7,0.1-1,0.2c-0.1,0-0.2,0.1-0.4,0.1c-0.1,0-0.2-0.3-0.3-0.4&#10;&#9;&#9;c-0.7-0.7-1.6-0.2-2.2,0.4c-0.5,0.5,0.3,1.2,0.7,0.7c0.2-0.2,0.6-0.6,0.8-0.4c0.3,0.3,0.5,0.6,1,0.6c0.4,0,0.7-0.1,1-0.2&#10;&#9;&#9;c0.2-0.1,0.3-0.1,0.5,0c0.2,0.1,0.4,0.2,0.6,0.2c0.7,0.1,1.2-0.4,1.8-0.6c0.3-0.1,0.3,0.3,0.5,0.4c0.4,0.2,0.9,0.1,1.1-0.2&#10;&#9;&#9;C55.9,61.3,55.5,60.9,55.1,61z" id="el__nOoTr4mrRv"/>
	<g id="el_Me9uKLWBYPM_an_nwJXe2H6D" data-animator-group="true" data-animator-type="2"><path d="M68.3,63.7H44.1c-1.3,0-2.4-1.1-2.4-2.4v-0.2c0-1.3,1.1-2.4,2.4-2.4h24.2c1.3,0,2.4,1.1,2.4,2.4v0.2&#10;&#9;&#9;C70.7,62.6,69.6,63.7,68.3,63.7z" id="el_Me9uKLWBYPM"/></g>
	<g id="el_Y9ClTRtMv6H">
		<path d="M67.1,60.9h-1.2v-0.1h0.3c0-0.2,0.1-0.4,0.3-0.5c0.2-0.1,0.3-0.2,0.6-0.2c0.3,0,0.5,0.1,0.7,0.3l-0.2,0.2&#10;&#9;&#9;&#9;c-0.1-0.1-0.3-0.2-0.5-0.2c-0.1,0-0.3,0-0.4,0.1c-0.1,0.1-0.2,0.2-0.2,0.3h0.7V60.9z M65.8,61h1.2v0.1h-0.6&#10;&#9;&#9;&#9;c0.1,0.2,0.3,0.4,0.6,0.4c0.2,0,0.4-0.1,0.5-0.2l0.2,0.2c-0.2,0.2-0.4,0.3-0.7,0.3c-0.2,0-0.4-0.1-0.5-0.2&#10;&#9;&#9;&#9;c-0.2-0.1-0.3-0.3-0.3-0.5h-0.3V61z" id="el_z61IbrVvmlk"/>
	</g>
	<circle cx="44.7" cy="61.1" r="1" id="el_mWDMiXa3PiS"/>
	<path d="M58.2,70H34.1c-1.3,0-2.4-1.1-2.4-2.4v-0.2c0-1.3,1.1-2.4,2.4-2.4h24.2c1.3,0,2.4,1.1,2.4,2.4v0.2&#10;&#9;&#9;C60.7,68.9,59.6,70,58.2,70z" id="el_vn57v1j49-M"/>
	<g id="el_H8ICQSSxsSi">
		<path d="M57.1,67.2h-1.2v-0.1h0.3c0-0.2,0.1-0.4,0.3-0.5c0.2-0.1,0.3-0.2,0.6-0.2c0.3,0,0.5,0.1,0.7,0.3l-0.2,0.2&#10;&#9;&#9;&#9;c-0.1-0.1-0.3-0.2-0.5-0.2c-0.1,0-0.3,0-0.4,0.1c-0.1,0.1-0.2,0.2-0.2,0.3h0.7V67.2z M55.8,67.4h1.2v0.1h-0.6&#10;&#9;&#9;&#9;c0.1,0.2,0.3,0.4,0.6,0.4c0.2,0,0.4-0.1,0.5-0.2l0.2,0.2c-0.2,0.2-0.4,0.3-0.7,0.3c-0.2,0-0.4-0.1-0.5-0.2&#10;&#9;&#9;&#9;c-0.2-0.1-0.3-0.3-0.3-0.5h-0.3V67.4z" id="el_afiHOUBN2FN"/>
	</g>
	<circle cx="34.7" cy="67.4" r="1" id="el_3iwVmSqXWjw"/>
	<path d="M58.3,75.9H34.1c-1.3,0-2.4-1.1-2.4-2.4v-0.2c0-1.3,1.1-2.4,2.4-2.4h24.2c1.3,0,2.4,1.1,2.4,2.4v0.2&#10;&#9;&#9;C60.7,74.8,59.6,75.9,58.3,75.9z" id="el_94roL3scihp"/>
	<g id="el_zHQEbdF6lEa">
		<path d="M57.1,73.1h-1.2V73h0.3c0-0.2,0.1-0.4,0.3-0.5c0.2-0.1,0.3-0.2,0.6-0.2c0.3,0,0.5,0.1,0.7,0.3l-0.2,0.2&#10;&#9;&#9;&#9;c-0.1-0.1-0.3-0.2-0.5-0.2c-0.1,0-0.3,0-0.4,0.1c-0.1,0.1-0.2,0.2-0.2,0.3h0.7V73.1z M55.8,73.3h1.2v0.1h-0.6&#10;&#9;&#9;&#9;c0.1,0.2,0.3,0.4,0.6,0.4c0.2,0,0.4-0.1,0.5-0.2l0.2,0.2c-0.2,0.2-0.4,0.3-0.7,0.3c-0.2,0-0.4-0.1-0.5-0.2&#10;&#9;&#9;&#9;c-0.2-0.1-0.3-0.3-0.3-0.5h-0.3V73.3z" id="el_-2RygRb_5S0"/>
	</g>
	<circle cx="34.7" cy="73.4" r="1" id="el_YJ9TcAw-LI5"/>
	<path d="M58.3,81.9H34.1c-1.3,0-2.4-1.1-2.4-2.4v-0.2c0-1.3,1.1-2.4,2.4-2.4h24.2c1.3,0,2.4,1.1,2.4,2.4v0.2&#10;&#9;&#9;C60.7,80.8,59.6,81.9,58.3,81.9z" id="el_rHAOfHr2gPS"/>
	<g id="el_IKp_YLAhiIb">
		<path d="M57.1,79.1h-1.2V79h0.3c0-0.2,0.1-0.4,0.3-0.5c0.2-0.1,0.3-0.2,0.6-0.2c0.3,0,0.5,0.1,0.7,0.3l-0.2,0.2&#10;&#9;&#9;&#9;c-0.1-0.1-0.3-0.2-0.5-0.2c-0.1,0-0.3,0-0.4,0.1c-0.1,0.1-0.2,0.2-0.2,0.3h0.7V79.1z M55.8,79.3h1.2v0.1h-0.6&#10;&#9;&#9;&#9;c0.1,0.2,0.3,0.4,0.6,0.4c0.2,0,0.4-0.1,0.5-0.2l0.2,0.2c-0.2,0.2-0.4,0.3-0.7,0.3c-0.2,0-0.4-0.1-0.5-0.2&#10;&#9;&#9;&#9;c-0.2-0.1-0.3-0.3-0.3-0.5h-0.3V79.3z" id="el_E58HmhVL34m"/>
	</g>
	<circle cx="34.7" cy="79.4" r="1" id="el_pL5znM5MkJy"/>
</g>
<path d="M26,40.2c11.2,4.7,18.8,11.3,17.3,15c-0.5-2.5-5.1-6.2-11.6-8.9c-7.6-3.2-14.9-3.8-16.2-1.4&#10;&#9;c-1.3,2.4,3.8,7,11.4,10.1c3.1,1.3,2.9,1.5,5.6,1.9c-4.6-0.2-7.4-1-13.7-3.6C7.3,48.6-0.4,41.8,1.6,38.1C3.6,34.5,14.5,35.4,26,40.2&#10;&#9;z" id="el_UyQICHdAeTs"/>
</svg>